Results
version=1
nRows=40
nColumns=21
inDegrees=yes
endheader
time	sternoclavicular_r2	sternoclavicular_r3	unrotscap_r3	unrotscap_r2	acromioclavicular_r2	acromioclavicular_r3	acromioclavicular_r1	unrothum_r1	unrothum_r3	unrothum_r2	elv_angle	shoulder_elv	shoulder1_r2	shoulder_rot	elbow_flexion	pro_sup	deviation	flexion	wrist_hand_r1	wrist_hand_r3	
3.75	-3.3797	1.4316	-1.4314	3.3798	-0.68419	5.53	2.4852	-2.4867	-5.5312	0.68444	-12.002	13.966	12.002	-8.2269	101.45	33.166	2.8794e-05	-3.7087e-06	3.125e-05	5.4488e-07
3.755	-3.3782	1.431	-1.4308	3.3783	-0.68389	5.5275	2.4841	-2.4855	-5.5287	0.68414	-12.356	13.96	12.356	-8.2422	101.46	33.13	2.6557e-05	-3.565e-06	2.6184e-05	5.7277e-07
3.76	-3.3769	1.4304	-1.4302	3.3769	-0.68362	5.5253	2.4832	-2.4845	-5.5264	0.68386	-12.698	13.954	12.698	-8.2562	101.46	33.096	2.4529e-05	-3.4905e-06	2.1536e-05	4.8457e-07
3.765	-3.3757	1.4299	-1.4297	3.3758	-0.68338	5.5234	2.4823	-2.4836	-5.5245	0.68362	-13.027	13.949	13.027	-8.269	101.47	33.062	2.2618e-05	-3.3588e-06	1.7262e-05	5.3491e-07
3.77	-3.3747	1.4295	-1.4293	3.3747	-0.68317	5.5217	2.4816	-2.4829	-5.5228	0.68341	-13.345	13.945	13.345	-8.2807	101.47	33.031	2.0248e-05	-3.1789e-06	1.2289e-05	6.3851e-07
3.775	-3.3738	1.4291	-1.4289	3.3739	-0.683	5.5203	2.481	-2.4822	-5.5214	0.68324	-13.651	13.942	13.65	-8.291	101.48	33	1.7157e-05	-3.0814e-06	6.8733e-06	6.6114e-07
3.78	-3.3731	1.4288	-1.4286	3.3732	-0.68285	5.5192	2.4804	-2.4817	-5.5202	0.68309	-13.944	13.939	13.944	-8.3002	101.48	32.971	1.4708e-05	-3.0428e-06	2.1538e-06	6.1769e-07
3.785	-3.3725	1.4285	-1.4284	3.3726	-0.68274	5.5182	2.48	-2.4812	-5.5192	0.68297	-14.226	13.936	14.226	-8.3082	101.49	32.943	1.104e-05	-3.0755e-06	-4.1846e-06	4.9071e-07
3.79	-3.3721	1.4284	-1.4282	3.3722	-0.68266	5.5176	2.4798	-2.4809	-5.5185	0.68289	-14.495	13.935	14.495	-8.3149	101.49	32.917	8.0578e-06	-3.1075e-06	-1.0566e-05	3.5363e-07
3.795	-3.3718	1.4282	-1.4281	3.3719	-0.6826	5.5171	2.4796	-2.4807	-5.518	0.68283	-14.753	13.933	14.753	-8.3204	101.49	32.892	5.2247e-06	-3.144e-06	-1.6349e-05	2.0516e-07
3.8	-3.3714	1.4281	-1.4279	3.3715	-0.68253	5.5165	2.4793	-2.4804	-5.5174	0.68275	-14.999	13.932	14.999	-8.3248	101.5	32.869	2.1023e-06	-3.17e-06	-2.2717e-05	7.1733e-08
3.805	-3.371	1.4279	-1.4278	3.3711	-0.68244	5.5158	2.479	-2.4801	-5.5167	0.68267	-15.232	13.93	15.232	-8.328	101.5	32.846	-6.4528e-07	-3.2072e-06	-2.8357e-05	-7.4922e-08
3.81	-3.3705	1.4277	-1.4276	3.3706	-0.68234	5.515	2.4787	-2.4797	-5.5159	0.68257	-15.454	13.928	15.454	-8.3301	101.51	32.825	-3.4008e-06	-3.2307e-06	-3.4141e-05	-2.0266e-07
3.815	-3.37	1.4274	-1.4273	3.37	-0.68223	5.5141	2.4783	-2.4793	-5.515	0.68245	-15.664	13.926	15.664	-8.331	101.51	32.806	-6.1887e-06	-3.2707e-06	-3.9455e-05	-3.5121e-07
3.82	-3.3693	1.4271	-1.4271	3.3694	-0.6821	5.5131	2.4778	-2.4788	-5.514	0.68233	-15.862	13.923	15.862	-8.3309	101.52	32.787	-9.379e-06	-3.309e-06	-4.5674e-05	-4.965e-07
3.825	-3.3686	1.4268	-1.4268	3.3687	-0.68196	5.5119	2.4773	-2.4783	-5.5129	0.68219	-16.048	13.92	16.048	-8.3295	101.53	32.77	-1.1622e-05	-3.3458e-06	-5.0128e-05	-6.3878e-07
3.83	-3.3679	1.4265	-1.4265	3.3679	-0.68181	5.5107	2.4768	-2.4777	-5.5116	0.68203	-16.222	13.917	16.222	-8.3271	101.53	32.754	-1.427e-05	-3.4044e-06	-5.5015e-05	-7.6444e-07
3.835	-3.367	1.4261	-1.4261	3.3671	-0.68163	5.5093	2.4761	-2.4771	-5.5102	0.68186	-16.384	13.914	16.384	-8.3235	101.54	32.739	-1.6741e-05	-3.4746e-06	-5.9387e-05	-8.8136e-07
3.84	-3.3661	1.4257	-1.4257	3.3661	-0.68144	5.5077	2.4755	-2.4764	-5.5087	0.68167	-16.535	13.91	16.535	-8.3188	101.54	32.726	-1.9796e-05	-3.5397e-06	-6.4614e-05	-1.0026e-06
3.845	-3.365	1.4253	-1.4253	3.3651	-0.68124	5.5061	2.4747	-2.4756	-5.507	0.68146	-16.675	13.905	16.675	-8.3129	101.54	32.714	-2.1952e-05	-3.6067e-06	-6.7991e-05	-1.1227e-06
3.85	-3.3639	1.4248	-1.4248	3.364	-0.681	5.5042	2.4739	-2.4748	-5.5051	0.68123	-16.803	13.901	16.803	-8.3056	101.55	32.703	-2.4031e-05	-3.7049e-06	-7.1054e-05	-1.1967e-06
3.855	-3.3626	1.4242	-1.4243	3.3627	-0.68075	5.5021	2.473	-2.4739	-5.5031	0.68097	-16.92	13.895	16.92	-8.2966	101.55	32.694	-2.6525e-05	-3.8244e-06	-7.46e-05	-1.2868e-06
3.86	-3.3613	1.4237	-1.4237	3.3614	-0.68047	5.4999	2.4719	-2.4728	-5.5008	0.6807	-17.026	13.89	17.026	-8.2862	101.54	32.686	-2.8386e-05	-3.9823e-06	-7.6865e-05	-1.2808e-06
3.865	-3.3598	1.423	-1.4231	3.3599	-0.68017	5.4974	2.4709	-2.4717	-5.4984	0.68039	-17.121	13.884	17.121	-8.2742	101.54	32.679	-2.9836e-05	-4.0823e-06	-7.863e-05	-1.2065e-06
3.87	-3.3582	1.4223	-1.4224	3.3583	-0.67984	5.4948	2.4697	-2.4706	-5.4958	0.68007	-17.206	13.877	17.206	-8.2608	101.54	32.674	-3.1112e-05	-4.2608e-06	-8.0052e-05	-1.2342e-06
3.875	-3.3565	1.4216	-1.4217	3.3565	-0.6795	5.492	2.4684	-2.4693	-5.493	0.67972	-17.279	13.87	17.279	-8.2458	101.53	32.67	-3.2579e-05	-4.2447e-06	-8.2472e-05	-1.0131e-06
3.88	-3.3548	1.4209	-1.421	3.3549	-0.67916	5.4892	2.4672	-2.4681	-5.4903	0.67938	-17.341	13.863	17.341	-8.2302	101.52	32.668	-3.4693e-05	-4.0683e-06	-8.57e-05	-7.6518e-07
3.885	-3.3532	1.4202	-1.4203	3.3533	-0.67883	5.4866	2.466	-2.4669	-5.4876	0.67905	-17.392	13.856	17.392	-8.2146	101.51	32.667	-3.6292e-05	-3.7716e-06	-8.724e-05	-4.8226e-07
3.89	-3.3516	1.4195	-1.4197	3.3517	-0.67852	5.484	2.4648	-2.4658	-5.4851	0.67874	-17.433	13.85	17.433	-8.1988	101.5	32.667	-3.7066e-05	-3.4454e-06	-8.7292e-05	-2.0449e-07
3.895	-3.3501	1.4189	-1.419	3.3502	-0.67821	5.4815	2.4637	-2.4647	-5.4827	0.67844	-17.463	13.844	17.463	-8.1827	101.48	32.668	-3.8792e-05	-3.1158e-06	-8.8925e-05	8.0156e-08
3.9	-3.3487	1.4183	-1.4184	3.3487	-0.67792	5.4792	2.4627	-2.4636	-5.4803	0.67814	-17.483	13.838	17.483	-8.1664	101.47	32.671	-4.016e-05	-2.7844e-06	-9.1047e-05	3.3462e-07
3.905	-3.3473	1.4177	-1.4178	3.3474	-0.67764	5.4769	2.4616	-2.4626	-5.4781	0.67787	-17.493	13.832	17.493	-8.1497	101.45	32.675	-4.1181e-05	-2.4689e-06	-9.246e-05	5.7296e-07
3.91	-3.3459	1.4171	-1.4173	3.346	-0.67735	5.4746	2.4606	-2.4616	-5.4758	0.67759	-17.503	13.826	17.503	-8.1329	101.43	32.679	-4.3639e-05	-2.1221e-06	-9.6685e-05	8.6433e-07
3.915	-3.3445	1.4165	-1.4167	3.3446	-0.67706	5.4723	2.4595	-2.4606	-5.4735	0.6773	-17.513	13.82	17.513	-8.1161	101.41	32.684	-4.5057e-05	-1.806e-06	-9.8944e-05	1.0833e-06
3.92	-3.3431	1.4159	-1.4161	3.3431	-0.67677	5.47	2.4585	-2.4595	-5.4712	0.67702	-17.524	13.815	17.524	-8.0991	101.39	32.688	-4.5491e-05	-1.5164e-06	-9.9945e-05	1.2719e-06
3.925	-3.3417	1.4153	-1.4155	3.3417	-0.67648	5.4676	2.4574	-2.4585	-5.4689	0.67673	-17.535	13.809	17.535	-8.0821	101.37	32.693	-4.5317e-05	-1.1874e-06	-9.9413e-05	1.4992e-06
3.93	-3.3402	1.4147	-1.4149	3.3403	-0.67619	5.4652	2.4564	-2.4575	-5.4666	0.67644	-17.547	13.803	17.547	-8.065	101.35	32.697	-4.5486e-05	-8.3e-07	-9.9626e-05	1.758e-06
3.935	-3.3388	1.4141	-1.4142	3.3388	-0.67589	5.4629	2.4553	-2.4564	-5.4642	0.67615	-17.559	13.797	17.559	-8.0478	101.33	32.702	-4.4054e-05	-4.3817e-07	-9.7855e-05	2.056e-06
3.94	-3.3373	1.4135	-1.4136	3.3374	-0.67559	5.4605	2.4542	-2.4553	-5.4618	0.67586	-17.571	13.791	17.571	-8.0304	101.3	32.707	-4.2211e-05	-4.8289e-08	-9.3921e-05	2.357e-06
3.945	-3.3359	1.4128	-1.413	3.3359	-0.6753	5.4581	2.4531	-2.4543	-5.4595	0.67557	-17.584	13.785	17.584	-8.0131	101.28	32.713	-4.0709e-05	3.429e-07	-9.0817e-05	2.6596e-06
